<svg xmlns="http://www.w3.org/2000/svg" width="60" height="40" viewBox="0 0 30 20">
  <rect width="30" height="20" fill="#ee1c25"/>
  <path fill="#ffff00" d="M5 8l-2.071 1.504.791-2.434-2.071-1.504h2.56L5 3.132l.791 2.434h2.56l-2.071 1.504.791 2.434L5 8zM10 3l-.618.851-.01-1.05L8.4 2.5l.983-.377.01-1.05.618.851 1.047-.04-.6 0.864.6 0.864L10 3zM12 5l-.618.851-.01-1.05L10.4 4.5l.983-.377.01-1.05.618.851 1.047-.04-.6 0.864.6 0.864L12 5zM12 8l-.618.851-.01-1.05L10.4 7.5l.983-.377.01-1.05.618.851 1.047-.04-.6 0.864.6 0.864L12 8zM10 10l-.618.851-.01-1.05L8.4 9.5l.983-.377.01-1.05.618.851 1.047-.04-.6 0.864.6 0.864L10 10z"/>
</svg>
